<mxfile host="app.diagrams.net" agent="Mozilla/5.0 (Windows NT 10.0; Win64; x64) AppleWebKit/537.36 (KHTML, like Gecko) Chrome/129.0.0.0 Safari/537.36 Edg/129.0.0.0" version="24.7.17">
  <diagram id="jxP2lz2wRCVgSaz3puim" name="Seite-1">
    <mxGraphModel dx="2377" dy="1515" grid="1" gridSize="10" guides="1" tooltips="1" connect="1" arrows="1" fold="1" page="1" pageScale="1" pageWidth="827" pageHeight="1169" math="0" shadow="0">
      <root>
        <mxCell id="0" />
        <mxCell id="1" parent="0" />
        <mxCell id="EJfDLHVy8dq6VVgnGaEE-44" style="edgeStyle=orthogonalEdgeStyle;rounded=0;orthogonalLoop=1;jettySize=auto;html=1;exitX=1;exitY=0.25;exitDx=0;exitDy=0;entryX=0;entryY=0.25;entryDx=0;entryDy=0;" edge="1" parent="1" source="u0j348jdfoMHpP_zHssR-1" target="EJfDLHVy8dq6VVgnGaEE-1">
          <mxGeometry relative="1" as="geometry">
            <Array as="points">
              <mxPoint x="370" y="250" />
              <mxPoint x="370" y="82" />
            </Array>
          </mxGeometry>
        </mxCell>
        <mxCell id="u0j348jdfoMHpP_zHssR-1" value="Line/Phono Eingangsstufe" style="rounded=0;whiteSpace=wrap;html=1;" parent="1" vertex="1">
          <mxGeometry x="230" y="230" width="120" height="80" as="geometry" />
        </mxCell>
        <mxCell id="u0j348jdfoMHpP_zHssR-2" value="Line In" style="rounded=0;whiteSpace=wrap;html=1;" parent="1" vertex="1">
          <mxGeometry x="130" y="230" width="60" height="30" as="geometry" />
        </mxCell>
        <mxCell id="u0j348jdfoMHpP_zHssR-3" value="Phono In" style="rounded=0;whiteSpace=wrap;html=1;" parent="1" vertex="1">
          <mxGeometry x="130" y="280" width="60" height="30" as="geometry" />
        </mxCell>
        <mxCell id="u0j348jdfoMHpP_zHssR-13" style="edgeStyle=orthogonalEdgeStyle;rounded=0;orthogonalLoop=1;jettySize=auto;html=1;exitX=1;exitY=0.5;exitDx=0;exitDy=0;entryX=0;entryY=0.25;entryDx=0;entryDy=0;" parent="1" source="u0j348jdfoMHpP_zHssR-4" target="u0j348jdfoMHpP_zHssR-12" edge="1">
          <mxGeometry relative="1" as="geometry" />
        </mxCell>
        <mxCell id="u0j348jdfoMHpP_zHssR-4" value="Mic In" style="rounded=0;whiteSpace=wrap;html=1;" parent="1" vertex="1">
          <mxGeometry x="130" y="330" width="60" height="30" as="geometry" />
        </mxCell>
        <mxCell id="u0j348jdfoMHpP_zHssR-5" style="edgeStyle=orthogonalEdgeStyle;rounded=0;orthogonalLoop=1;jettySize=auto;html=1;exitX=0.5;exitY=1;exitDx=0;exitDy=0;" parent="1" source="u0j348jdfoMHpP_zHssR-1" target="u0j348jdfoMHpP_zHssR-1" edge="1">
          <mxGeometry relative="1" as="geometry" />
        </mxCell>
        <mxCell id="u0j348jdfoMHpP_zHssR-9" style="edgeStyle=orthogonalEdgeStyle;rounded=0;orthogonalLoop=1;jettySize=auto;html=1;exitX=0.5;exitY=1;exitDx=0;exitDy=0;" parent="1" source="u0j348jdfoMHpP_zHssR-1" target="u0j348jdfoMHpP_zHssR-1" edge="1">
          <mxGeometry relative="1" as="geometry" />
        </mxCell>
        <mxCell id="u0j348jdfoMHpP_zHssR-10" style="edgeStyle=orthogonalEdgeStyle;rounded=0;orthogonalLoop=1;jettySize=auto;html=1;exitX=1;exitY=0.5;exitDx=0;exitDy=0;entryX=0.001;entryY=0.18;entryDx=0;entryDy=0;entryPerimeter=0;" parent="1" source="u0j348jdfoMHpP_zHssR-2" target="u0j348jdfoMHpP_zHssR-1" edge="1">
          <mxGeometry relative="1" as="geometry" />
        </mxCell>
        <mxCell id="u0j348jdfoMHpP_zHssR-11" style="edgeStyle=orthogonalEdgeStyle;rounded=0;orthogonalLoop=1;jettySize=auto;html=1;exitX=1;exitY=0.5;exitDx=0;exitDy=0;entryX=0.001;entryY=0.823;entryDx=0;entryDy=0;entryPerimeter=0;" parent="1" source="u0j348jdfoMHpP_zHssR-3" target="u0j348jdfoMHpP_zHssR-1" edge="1">
          <mxGeometry relative="1" as="geometry" />
        </mxCell>
        <mxCell id="u0j348jdfoMHpP_zHssR-12" value="Mic&amp;nbsp;&lt;div&gt;Eingangstufe / EQ&lt;/div&gt;" style="rounded=0;whiteSpace=wrap;html=1;" parent="1" vertex="1">
          <mxGeometry x="230" y="330" width="120" height="60" as="geometry" />
        </mxCell>
        <mxCell id="u0j348jdfoMHpP_zHssR-14" value="Kill Switch / Teiler" style="rounded=0;whiteSpace=wrap;html=1;" parent="1" vertex="1">
          <mxGeometry x="430" y="230" width="120" height="160" as="geometry" />
        </mxCell>
        <mxCell id="u0j348jdfoMHpP_zHssR-17" value="Frequenzweiche" style="rounded=0;whiteSpace=wrap;html=1;" parent="1" vertex="1">
          <mxGeometry x="430" y="440" width="120" height="280" as="geometry" />
        </mxCell>
        <mxCell id="u0j348jdfoMHpP_zHssR-28" style="edgeStyle=orthogonalEdgeStyle;rounded=0;orthogonalLoop=1;jettySize=auto;html=1;exitX=1;exitY=0.5;exitDx=0;exitDy=0;entryX=0;entryY=0.5;entryDx=0;entryDy=0;" parent="1" source="u0j348jdfoMHpP_zHssR-20" target="u0j348jdfoMHpP_zHssR-17" edge="1">
          <mxGeometry relative="1" as="geometry" />
        </mxCell>
        <mxCell id="u0j348jdfoMHpP_zHssR-52" value="32x DP" style="edgeLabel;html=1;align=center;verticalAlign=middle;resizable=0;points=[];" parent="u0j348jdfoMHpP_zHssR-28" vertex="1" connectable="0">
          <mxGeometry x="-0.2582" relative="1" as="geometry">
            <mxPoint x="6" as="offset" />
          </mxGeometry>
        </mxCell>
        <mxCell id="u0j348jdfoMHpP_zHssR-20" value="Controller /&amp;nbsp;&lt;div&gt;DigiPot&lt;/div&gt;" style="rounded=0;whiteSpace=wrap;html=1;" parent="1" vertex="1">
          <mxGeometry x="230" y="440" width="120" height="280" as="geometry" />
        </mxCell>
        <mxCell id="u0j348jdfoMHpP_zHssR-44" style="edgeStyle=orthogonalEdgeStyle;rounded=0;orthogonalLoop=1;jettySize=auto;html=1;exitX=0.5;exitY=1;exitDx=0;exitDy=0;entryX=0.5;entryY=0;entryDx=0;entryDy=0;" parent="1" edge="1">
          <mxGeometry relative="1" as="geometry">
            <mxPoint x="520" y="390" as="sourcePoint" />
            <mxPoint x="520" y="440" as="targetPoint" />
          </mxGeometry>
        </mxCell>
        <mxCell id="u0j348jdfoMHpP_zHssR-51" value="HÃ¶hen" style="edgeLabel;html=1;align=center;verticalAlign=middle;resizable=0;points=[];rotation=90;fontSize=11;" parent="u0j348jdfoMHpP_zHssR-44" vertex="1" connectable="0">
          <mxGeometry x="-0.3109" y="1" relative="1" as="geometry">
            <mxPoint y="3" as="offset" />
          </mxGeometry>
        </mxCell>
        <mxCell id="u0j348jdfoMHpP_zHssR-45" style="edgeStyle=orthogonalEdgeStyle;rounded=0;orthogonalLoop=1;jettySize=auto;html=1;exitX=0.5;exitY=1;exitDx=0;exitDy=0;entryX=0.5;entryY=0;entryDx=0;entryDy=0;" parent="1" edge="1">
          <mxGeometry relative="1" as="geometry">
            <mxPoint x="500" y="390" as="sourcePoint" />
            <mxPoint x="500" y="440" as="targetPoint" />
          </mxGeometry>
        </mxCell>
        <mxCell id="u0j348jdfoMHpP_zHssR-50" value="Mitten" style="edgeLabel;html=1;align=center;verticalAlign=middle;resizable=0;points=[];rotation=90;fontSize=11;" parent="u0j348jdfoMHpP_zHssR-45" vertex="1" connectable="0">
          <mxGeometry x="-0.3109" relative="1" as="geometry">
            <mxPoint y="3" as="offset" />
          </mxGeometry>
        </mxCell>
        <mxCell id="u0j348jdfoMHpP_zHssR-46" style="edgeStyle=orthogonalEdgeStyle;rounded=0;orthogonalLoop=1;jettySize=auto;html=1;exitX=0.5;exitY=1;exitDx=0;exitDy=0;entryX=0.5;entryY=0;entryDx=0;entryDy=0;" parent="1" edge="1">
          <mxGeometry relative="1" as="geometry">
            <mxPoint x="480" y="390" as="sourcePoint" />
            <mxPoint x="480" y="440" as="targetPoint" />
          </mxGeometry>
        </mxCell>
        <mxCell id="u0j348jdfoMHpP_zHssR-49" value="Kick" style="edgeLabel;html=1;align=center;verticalAlign=middle;resizable=0;points=[];rotation=90;fontSize=11;" parent="u0j348jdfoMHpP_zHssR-46" vertex="1" connectable="0">
          <mxGeometry x="-0.2367" relative="1" as="geometry">
            <mxPoint as="offset" />
          </mxGeometry>
        </mxCell>
        <mxCell id="u0j348jdfoMHpP_zHssR-47" style="edgeStyle=orthogonalEdgeStyle;rounded=0;orthogonalLoop=1;jettySize=auto;html=1;exitX=0.5;exitY=1;exitDx=0;exitDy=0;entryX=0.5;entryY=0;entryDx=0;entryDy=0;" parent="1" edge="1">
          <mxGeometry relative="1" as="geometry">
            <mxPoint x="460" y="390" as="sourcePoint" />
            <mxPoint x="460" y="440" as="targetPoint" />
          </mxGeometry>
        </mxCell>
        <mxCell id="u0j348jdfoMHpP_zHssR-48" value="Bass" style="edgeLabel;html=1;align=center;verticalAlign=middle;resizable=0;points=[];rotation=90;fontSize=11;" parent="u0j348jdfoMHpP_zHssR-47" vertex="1" connectable="0">
          <mxGeometry x="-0.1872" relative="1" as="geometry">
            <mxPoint as="offset" />
          </mxGeometry>
        </mxCell>
        <mxCell id="u0j348jdfoMHpP_zHssR-76" style="edgeStyle=orthogonalEdgeStyle;rounded=0;orthogonalLoop=1;jettySize=auto;html=1;entryX=0;entryY=0.5;entryDx=0;entryDy=0;" parent="1" source="u0j348jdfoMHpP_zHssR-59" target="u0j348jdfoMHpP_zHssR-70" edge="1">
          <mxGeometry relative="1" as="geometry">
            <Array as="points">
              <mxPoint x="560" y="785" />
              <mxPoint x="560" y="785" />
            </Array>
          </mxGeometry>
        </mxCell>
        <mxCell id="u0j348jdfoMHpP_zHssR-77" style="edgeStyle=orthogonalEdgeStyle;rounded=0;orthogonalLoop=1;jettySize=auto;html=1;exitX=1;exitY=0.5;exitDx=0;exitDy=0;entryX=0;entryY=0.5;entryDx=0;entryDy=0;" parent="1" source="u0j348jdfoMHpP_zHssR-59" target="u0j348jdfoMHpP_zHssR-71" edge="1">
          <mxGeometry relative="1" as="geometry">
            <Array as="points">
              <mxPoint x="550" y="835" />
            </Array>
          </mxGeometry>
        </mxCell>
        <mxCell id="u0j348jdfoMHpP_zHssR-59" value="EQ" style="rounded=0;whiteSpace=wrap;html=1;verticalAlign=middle;horizontal=1;" parent="1" vertex="1">
          <mxGeometry x="230" y="770" width="320" height="180" as="geometry" />
        </mxCell>
        <mxCell id="u0j348jdfoMHpP_zHssR-60" style="edgeStyle=orthogonalEdgeStyle;rounded=0;orthogonalLoop=1;jettySize=auto;html=1;exitX=0.5;exitY=1;exitDx=0;exitDy=0;entryX=0.5;entryY=0;entryDx=0;entryDy=0;" parent="1" edge="1">
          <mxGeometry relative="1" as="geometry">
            <mxPoint x="520" y="720" as="sourcePoint" />
            <mxPoint x="520" y="770" as="targetPoint" />
          </mxGeometry>
        </mxCell>
        <mxCell id="u0j348jdfoMHpP_zHssR-61" value="HÃ¶hen" style="edgeLabel;html=1;align=center;verticalAlign=middle;resizable=0;points=[];rotation=90;fontSize=11;" parent="u0j348jdfoMHpP_zHssR-60" vertex="1" connectable="0">
          <mxGeometry x="-0.3109" y="1" relative="1" as="geometry">
            <mxPoint y="3" as="offset" />
          </mxGeometry>
        </mxCell>
        <mxCell id="u0j348jdfoMHpP_zHssR-62" style="edgeStyle=orthogonalEdgeStyle;rounded=0;orthogonalLoop=1;jettySize=auto;html=1;exitX=0.5;exitY=1;exitDx=0;exitDy=0;entryX=0.5;entryY=0;entryDx=0;entryDy=0;" parent="1" edge="1">
          <mxGeometry relative="1" as="geometry">
            <mxPoint x="500" y="720" as="sourcePoint" />
            <mxPoint x="500" y="770" as="targetPoint" />
          </mxGeometry>
        </mxCell>
        <mxCell id="u0j348jdfoMHpP_zHssR-63" value="Mitten" style="edgeLabel;html=1;align=center;verticalAlign=middle;resizable=0;points=[];rotation=90;fontSize=11;" parent="u0j348jdfoMHpP_zHssR-62" vertex="1" connectable="0">
          <mxGeometry x="-0.3109" relative="1" as="geometry">
            <mxPoint y="3" as="offset" />
          </mxGeometry>
        </mxCell>
        <mxCell id="u0j348jdfoMHpP_zHssR-64" style="edgeStyle=orthogonalEdgeStyle;rounded=0;orthogonalLoop=1;jettySize=auto;html=1;exitX=0.5;exitY=1;exitDx=0;exitDy=0;entryX=0.5;entryY=0;entryDx=0;entryDy=0;" parent="1" edge="1">
          <mxGeometry relative="1" as="geometry">
            <mxPoint x="480" y="720" as="sourcePoint" />
            <mxPoint x="480" y="770" as="targetPoint" />
          </mxGeometry>
        </mxCell>
        <mxCell id="u0j348jdfoMHpP_zHssR-65" value="Kick" style="edgeLabel;html=1;align=center;verticalAlign=middle;resizable=0;points=[];rotation=90;fontSize=11;" parent="u0j348jdfoMHpP_zHssR-64" vertex="1" connectable="0">
          <mxGeometry x="-0.2367" relative="1" as="geometry">
            <mxPoint as="offset" />
          </mxGeometry>
        </mxCell>
        <mxCell id="u0j348jdfoMHpP_zHssR-66" style="edgeStyle=orthogonalEdgeStyle;rounded=0;orthogonalLoop=1;jettySize=auto;html=1;exitX=0.5;exitY=1;exitDx=0;exitDy=0;entryX=0.5;entryY=0;entryDx=0;entryDy=0;" parent="1" edge="1">
          <mxGeometry relative="1" as="geometry">
            <mxPoint x="460" y="720" as="sourcePoint" />
            <mxPoint x="460" y="770" as="targetPoint" />
          </mxGeometry>
        </mxCell>
        <mxCell id="u0j348jdfoMHpP_zHssR-67" value="Bass" style="edgeLabel;html=1;align=center;verticalAlign=middle;resizable=0;points=[];rotation=90;fontSize=11;" parent="u0j348jdfoMHpP_zHssR-66" vertex="1" connectable="0">
          <mxGeometry x="-0.1872" relative="1" as="geometry">
            <mxPoint as="offset" />
          </mxGeometry>
        </mxCell>
        <mxCell id="u0j348jdfoMHpP_zHssR-70" value="Bass Iso" style="rounded=0;whiteSpace=wrap;html=1;" parent="1" vertex="1">
          <mxGeometry x="580" y="770" width="70" height="30" as="geometry" />
        </mxCell>
        <mxCell id="u0j348jdfoMHpP_zHssR-71" value="Kick Iso" style="rounded=0;whiteSpace=wrap;html=1;" parent="1" vertex="1">
          <mxGeometry x="580" y="820" width="70" height="30" as="geometry" />
        </mxCell>
        <mxCell id="u0j348jdfoMHpP_zHssR-72" value="Mitten Iso" style="rounded=0;whiteSpace=wrap;html=1;" parent="1" vertex="1">
          <mxGeometry x="580" y="870" width="70" height="30" as="geometry" />
        </mxCell>
        <mxCell id="u0j348jdfoMHpP_zHssR-84" value="HÃ¶hen Iso" style="rounded=0;whiteSpace=wrap;html=1;" parent="1" vertex="1">
          <mxGeometry x="580" y="920" width="70" height="30" as="geometry" />
        </mxCell>
        <mxCell id="u0j348jdfoMHpP_zHssR-171" value="" style="endArrow=classic;html=1;rounded=0;exitX=1.001;exitY=0.412;exitDx=0;exitDy=0;exitPerimeter=0;" parent="1" edge="1">
          <mxGeometry width="50" height="50" relative="1" as="geometry">
            <mxPoint x="550" y="885.1800000000001" as="sourcePoint" />
            <mxPoint x="579.88" y="884.8200000000002" as="targetPoint" />
            <Array as="points">
              <mxPoint x="569.88" y="884.8200000000002" />
            </Array>
          </mxGeometry>
        </mxCell>
        <mxCell id="u0j348jdfoMHpP_zHssR-172" value="" style="endArrow=classic;html=1;rounded=0;exitX=1.001;exitY=0.412;exitDx=0;exitDy=0;exitPerimeter=0;" parent="1" edge="1">
          <mxGeometry width="50" height="50" relative="1" as="geometry">
            <mxPoint x="550" y="934.9200000000001" as="sourcePoint" />
            <mxPoint x="580" y="934.9200000000001" as="targetPoint" />
          </mxGeometry>
        </mxCell>
        <mxCell id="u0j348jdfoMHpP_zHssR-180" style="edgeStyle=orthogonalEdgeStyle;rounded=0;orthogonalLoop=1;jettySize=auto;html=1;entryX=0.093;entryY=-0.003;entryDx=0;entryDy=0;entryPerimeter=0;" parent="1" edge="1">
          <mxGeometry relative="1" as="geometry">
            <mxPoint x="359.88" y="950" as="sourcePoint" />
            <mxPoint x="359.64" y="1019.46" as="targetPoint" />
            <Array as="points">
              <mxPoint x="359.88" y="980" />
            </Array>
          </mxGeometry>
        </mxCell>
        <mxCell id="u0j348jdfoMHpP_zHssR-186" value="Bass Line" style="edgeLabel;html=1;align=center;verticalAlign=middle;resizable=0;points=[];rotation=90;" parent="u0j348jdfoMHpP_zHssR-180" vertex="1" connectable="0">
          <mxGeometry x="-0.1353" y="1" relative="1" as="geometry">
            <mxPoint as="offset" />
          </mxGeometry>
        </mxCell>
        <mxCell id="u0j348jdfoMHpP_zHssR-188" style="edgeStyle=orthogonalEdgeStyle;rounded=0;orthogonalLoop=1;jettySize=auto;html=1;entryX=0.093;entryY=-0.003;entryDx=0;entryDy=0;entryPerimeter=0;" parent="1" edge="1">
          <mxGeometry relative="1" as="geometry">
            <mxPoint x="380.12" y="950" as="sourcePoint" />
            <mxPoint x="379.88" y="1019.46" as="targetPoint" />
            <Array as="points">
              <mxPoint x="380.12" y="980" />
            </Array>
          </mxGeometry>
        </mxCell>
        <mxCell id="u0j348jdfoMHpP_zHssR-189" value="Kick Line" style="edgeLabel;html=1;align=center;verticalAlign=middle;resizable=0;points=[];rotation=90;" parent="u0j348jdfoMHpP_zHssR-188" vertex="1" connectable="0">
          <mxGeometry x="-0.1353" y="1" relative="1" as="geometry">
            <mxPoint as="offset" />
          </mxGeometry>
        </mxCell>
        <mxCell id="u0j348jdfoMHpP_zHssR-190" style="edgeStyle=orthogonalEdgeStyle;rounded=0;orthogonalLoop=1;jettySize=auto;html=1;entryX=0.093;entryY=-0.003;entryDx=0;entryDy=0;entryPerimeter=0;" parent="1" edge="1">
          <mxGeometry relative="1" as="geometry">
            <mxPoint x="400.12" y="950" as="sourcePoint" />
            <mxPoint x="399.88" y="1019.46" as="targetPoint" />
            <Array as="points">
              <mxPoint x="400.12" y="980" />
            </Array>
          </mxGeometry>
        </mxCell>
        <mxCell id="u0j348jdfoMHpP_zHssR-191" value="Mitten Line" style="edgeLabel;html=1;align=center;verticalAlign=middle;resizable=0;points=[];rotation=90;" parent="u0j348jdfoMHpP_zHssR-190" vertex="1" connectable="0">
          <mxGeometry x="-0.1353" y="1" relative="1" as="geometry">
            <mxPoint as="offset" />
          </mxGeometry>
        </mxCell>
        <mxCell id="u0j348jdfoMHpP_zHssR-193" style="edgeStyle=orthogonalEdgeStyle;rounded=0;orthogonalLoop=1;jettySize=auto;html=1;entryX=0.093;entryY=-0.003;entryDx=0;entryDy=0;entryPerimeter=0;" parent="1" edge="1">
          <mxGeometry relative="1" as="geometry">
            <mxPoint x="420.12" y="950" as="sourcePoint" />
            <mxPoint x="419.88" y="1019.46" as="targetPoint" />
            <Array as="points">
              <mxPoint x="419.94" y="980" />
              <mxPoint x="419.94" y="980" />
            </Array>
          </mxGeometry>
        </mxCell>
        <mxCell id="u0j348jdfoMHpP_zHssR-194" value="HÃ¶hen Line" style="edgeLabel;html=1;align=center;verticalAlign=middle;resizable=0;points=[];rotation=90;" parent="u0j348jdfoMHpP_zHssR-193" vertex="1" connectable="0">
          <mxGeometry x="-0.1353" y="1" relative="1" as="geometry">
            <mxPoint as="offset" />
          </mxGeometry>
        </mxCell>
        <mxCell id="u0j348jdfoMHpP_zHssR-203" value="Ausgangstufe / VU Meter" style="rounded=0;whiteSpace=wrap;html=1;verticalAlign=middle;horizontal=1;" parent="1" vertex="1">
          <mxGeometry x="230" y="1020" width="320" height="80" as="geometry" />
        </mxCell>
        <mxCell id="u0j348jdfoMHpP_zHssR-206" value="Line L" style="rounded=0;whiteSpace=wrap;html=1;" parent="1" vertex="1">
          <mxGeometry x="580" y="1020" width="70" height="30" as="geometry" />
        </mxCell>
        <mxCell id="u0j348jdfoMHpP_zHssR-207" value="Line R" style="rounded=0;whiteSpace=wrap;html=1;" parent="1" vertex="1">
          <mxGeometry x="580" y="1070" width="70" height="30" as="geometry" />
        </mxCell>
        <mxCell id="u0j348jdfoMHpP_zHssR-212" value="" style="endArrow=classic;html=1;rounded=0;exitX=1.001;exitY=0.412;exitDx=0;exitDy=0;exitPerimeter=0;" parent="1" edge="1">
          <mxGeometry width="50" height="50" relative="1" as="geometry">
            <mxPoint x="550" y="1034.86" as="sourcePoint" />
            <mxPoint x="580" y="1034.86" as="targetPoint" />
          </mxGeometry>
        </mxCell>
        <mxCell id="EJfDLHVy8dq6VVgnGaEE-1" value="AUX Stufe" style="rounded=0;whiteSpace=wrap;html=1;" vertex="1" parent="1">
          <mxGeometry x="430" y="50" width="120" height="130" as="geometry" />
        </mxCell>
        <mxCell id="EJfDLHVy8dq6VVgnGaEE-18" style="edgeStyle=orthogonalEdgeStyle;rounded=0;orthogonalLoop=1;jettySize=auto;html=1;exitX=0.5;exitY=1;exitDx=0;exitDy=0;entryX=0.5;entryY=0;entryDx=0;entryDy=0;" edge="1" parent="1">
          <mxGeometry relative="1" as="geometry">
            <mxPoint x="489.76" y="180" as="sourcePoint" />
            <mxPoint x="489.76" y="230" as="targetPoint" />
          </mxGeometry>
        </mxCell>
        <mxCell id="EJfDLHVy8dq6VVgnGaEE-19" value="AUX&lt;div&gt;Sum&lt;/div&gt;" style="edgeLabel;html=1;align=center;verticalAlign=middle;resizable=0;points=[];rotation=90;fontSize=11;" vertex="1" connectable="0" parent="EJfDLHVy8dq6VVgnGaEE-18">
          <mxGeometry x="-0.1872" relative="1" as="geometry">
            <mxPoint as="offset" />
          </mxGeometry>
        </mxCell>
        <mxCell id="EJfDLHVy8dq6VVgnGaEE-20" value="AUX&lt;br&gt;Send" style="rounded=0;whiteSpace=wrap;html=1;" vertex="1" parent="1">
          <mxGeometry x="580" y="50" width="60" height="50" as="geometry" />
        </mxCell>
        <mxCell id="EJfDLHVy8dq6VVgnGaEE-25" value="" style="endArrow=classic;html=1;rounded=0;exitX=1.002;exitY=0.308;exitDx=0;exitDy=0;exitPerimeter=0;entryX=0;entryY=1;entryDx=0;entryDy=0;" edge="1" parent="1">
          <mxGeometry width="50" height="50" relative="1" as="geometry">
            <mxPoint x="550" y="74.91999999999996" as="sourcePoint" />
            <mxPoint x="580" y="74.92000000000002" as="targetPoint" />
          </mxGeometry>
        </mxCell>
        <mxCell id="EJfDLHVy8dq6VVgnGaEE-26" value="" style="endArrow=classic;html=1;rounded=0;exitX=1.002;exitY=0.308;exitDx=0;exitDy=0;exitPerimeter=0;entryX=0;entryY=1;entryDx=0;entryDy=0;" edge="1" parent="1">
          <mxGeometry width="50" height="50" relative="1" as="geometry">
            <mxPoint x="550" y="59.99999999999997" as="sourcePoint" />
            <mxPoint x="580" y="60" as="targetPoint" />
          </mxGeometry>
        </mxCell>
        <mxCell id="EJfDLHVy8dq6VVgnGaEE-27" value="" style="endArrow=classic;html=1;rounded=0;exitX=1.002;exitY=0.308;exitDx=0;exitDy=0;exitPerimeter=0;entryX=0;entryY=1;entryDx=0;entryDy=0;" edge="1" parent="1">
          <mxGeometry width="50" height="50" relative="1" as="geometry">
            <mxPoint x="550" y="90" as="sourcePoint" />
            <mxPoint x="580" y="90" as="targetPoint" />
          </mxGeometry>
        </mxCell>
        <mxCell id="EJfDLHVy8dq6VVgnGaEE-28" value="AUX&lt;br&gt;Return" style="rounded=0;whiteSpace=wrap;html=1;" vertex="1" parent="1">
          <mxGeometry x="580" y="130" width="60" height="50" as="geometry" />
        </mxCell>
        <mxCell id="EJfDLHVy8dq6VVgnGaEE-29" value="" style="endArrow=classic;html=1;rounded=0;exitX=1.002;exitY=0.308;exitDx=0;exitDy=0;exitPerimeter=0;entryX=0;entryY=1;entryDx=0;entryDy=0;" edge="1" parent="1">
          <mxGeometry width="50" height="50" relative="1" as="geometry">
            <mxPoint x="580" y="154.81" as="sourcePoint" />
            <mxPoint x="550" y="154.80999999999995" as="targetPoint" />
          </mxGeometry>
        </mxCell>
        <mxCell id="EJfDLHVy8dq6VVgnGaEE-30" value="" style="endArrow=classic;html=1;rounded=0;exitX=1.002;exitY=0.308;exitDx=0;exitDy=0;exitPerimeter=0;entryX=0;entryY=1;entryDx=0;entryDy=0;" edge="1" parent="1">
          <mxGeometry width="50" height="50" relative="1" as="geometry">
            <mxPoint x="580" y="139.89" as="sourcePoint" />
            <mxPoint x="550" y="139.89" as="targetPoint" />
          </mxGeometry>
        </mxCell>
        <mxCell id="EJfDLHVy8dq6VVgnGaEE-31" value="" style="endArrow=classic;html=1;rounded=0;exitX=1.002;exitY=0.308;exitDx=0;exitDy=0;exitPerimeter=0;entryX=0;entryY=1;entryDx=0;entryDy=0;" edge="1" parent="1">
          <mxGeometry width="50" height="50" relative="1" as="geometry">
            <mxPoint x="580" y="169.89" as="sourcePoint" />
            <mxPoint x="550" y="169.89" as="targetPoint" />
          </mxGeometry>
        </mxCell>
        <mxCell id="EJfDLHVy8dq6VVgnGaEE-32" value="" style="endArrow=classic;html=1;rounded=0;exitX=1.001;exitY=0.412;exitDx=0;exitDy=0;exitPerimeter=0;" edge="1" parent="1">
          <mxGeometry width="50" height="50" relative="1" as="geometry">
            <mxPoint x="550" y="1084.8" as="sourcePoint" />
            <mxPoint x="580" y="1084.8" as="targetPoint" />
          </mxGeometry>
        </mxCell>
        <mxCell id="EJfDLHVy8dq6VVgnGaEE-42" value="" style="endArrow=classic;html=1;rounded=0;entryX=0;entryY=0.435;entryDx=0;entryDy=0;entryPerimeter=0;exitX=1;exitY=0.869;exitDx=0;exitDy=0;exitPerimeter=0;" edge="1" parent="1">
          <mxGeometry width="50" height="50" relative="1" as="geometry">
            <mxPoint x="350" y="370" as="sourcePoint" />
            <mxPoint x="430" y="370" as="targetPoint" />
          </mxGeometry>
        </mxCell>
        <mxCell id="EJfDLHVy8dq6VVgnGaEE-43" value="" style="endArrow=classic;html=1;rounded=0;entryX=0;entryY=0.435;entryDx=0;entryDy=0;entryPerimeter=0;exitX=1;exitY=0.869;exitDx=0;exitDy=0;exitPerimeter=0;" edge="1" parent="1">
          <mxGeometry width="50" height="50" relative="1" as="geometry">
            <mxPoint x="350" y="290" as="sourcePoint" />
            <mxPoint x="430" y="290" as="targetPoint" />
          </mxGeometry>
        </mxCell>
        <mxCell id="EJfDLHVy8dq6VVgnGaEE-45" style="edgeStyle=orthogonalEdgeStyle;rounded=0;orthogonalLoop=1;jettySize=auto;html=1;exitX=1;exitY=0.25;exitDx=0;exitDy=0;entryX=0;entryY=0.692;entryDx=0;entryDy=0;entryPerimeter=0;" edge="1" parent="1" source="u0j348jdfoMHpP_zHssR-12" target="EJfDLHVy8dq6VVgnGaEE-1">
          <mxGeometry relative="1" as="geometry">
            <Array as="points">
              <mxPoint x="350" y="350" />
              <mxPoint x="400" y="350" />
              <mxPoint x="400" y="140" />
            </Array>
          </mxGeometry>
        </mxCell>
      </root>
    </mxGraphModel>
  </diagram>
</mxfile>
